<svg xmlns="http://www.w3.org/2000/svg" version="1.1" viewBox="-5.0 -10.0 110.0 135.0">
 <path d="m14.723 11.664c0.75391 0 1.3633 0.61328 1.3633 1.3672s-0.60938 1.3633-1.3633 1.3633h-2.6875c-0.75391 0-1.3633-0.60938-1.3633-1.3633s0.60938-1.3672 1.3633-1.3672zm16.121 0c0.75391 0 1.3633 0.61328 1.3633 1.3672s-0.60938 1.3633-1.3633 1.3633h-11.191c-0.75391 0-1.3633-0.60938-1.3633-1.3633s0.60938-1.3672 1.3633-1.3672zm7.7539 0c0.75 0 1.3633 0.61328 1.3633 1.3672s-0.61328 1.3633-1.3633 1.3633h-3.7344c-0.75391 0-1.3672-0.60938-1.3672-1.3633s0.61328-1.3672 1.3672-1.3672zm-21.527 6.6055c0.36719-0.007812 0.72266 0.12891 0.98828 0.38672 0.26172 0.25781 0.41406 0.60938 0.41406 0.97656 0 0.37109-0.15234 0.72266-0.41406 0.98047-0.26562 0.25391-0.62109 0.39453-0.98828 0.38281h-5.0352c-0.37109 0.011718-0.72656-0.12891-0.98828-0.38281-0.26562-0.25781-0.41406-0.60938-0.41406-0.98047 0-0.36719 0.14844-0.71875 0.41406-0.97656 0.26172-0.25781 0.61719-0.39453 0.98828-0.38672zm21.527 0c0.75 0 1.3633 0.60938 1.3633 1.3633 0.003906 0.75391-0.60547 1.3672-1.3594 1.3672h-16.723c-0.36719 0.011719-0.72266-0.12891-0.98828-0.38672-0.26562-0.25781-0.41406-0.60938-0.41406-0.97656 0-0.36719 0.14844-0.72266 0.41406-0.97656 0.26562-0.25781 0.62109-0.39844 0.98828-0.38672zm-7.2812 6.6055h-0.003906c0.73828 0.019531 1.3281 0.625 1.3281 1.3633s-0.58984 1.3438-1.3281 1.3633h-19.277c-0.37109 0.011719-0.72656-0.12891-0.98828-0.38281-0.26562-0.25781-0.41406-0.60938-0.41406-0.98047 0-0.36719 0.14844-0.71875 0.41406-0.97656 0.26172-0.25781 0.61719-0.39453 0.98828-0.38672zm7.2812 0c0.36719-0.007812 0.72266 0.12891 0.98828 0.38672 0.26172 0.25781 0.41016 0.60938 0.41016 0.97656 0 0.37109-0.14844 0.72266-0.41016 0.98047-0.26563 0.25391-0.62109 0.39453-0.98828 0.38281h-3.2656c-0.73828-0.019531-1.3281-0.625-1.3281-1.3633s0.58984-1.3438 1.3281-1.3633zm-8.7891 28.469h-6.5c-4.2305 0.015625-7.6523 3.4375-7.668 7.668v6.8711c0.015625 4.2305 3.4414 7.6562 7.668 7.668h6.5c0.64453-0.003906 1.1641-0.52344 1.168-1.168v-19.871c0-0.64453-0.52344-1.1641-1.168-1.168zm54.715 0h-6.5c-0.64453 0.003906-1.1641 0.52344-1.168 1.168v19.871c0.003906 0.64453 0.52344 1.1641 1.168 1.168h6.5c4.2266-0.015625 7.6523-3.4375 7.6641-7.668v-6.8711c-0.011719-4.2305-3.4375-7.6523-7.6641-7.668zm-23.625 34.59h-4.4609c-1.1797 0.023437-2.125 0.98828-2.125 2.168 0 1.1836 0.94531 2.1445 2.125 2.1719h4.4609c1.1836-0.027344 2.125-0.98828 2.125-2.1719 0-1.1797-0.94141-2.1445-2.125-2.168zm-19.434-53.664c2.25-0.003906 4.0781-1.8281 4.082-4.082v-10.641c8.1875-2.6641 17.152-1.25 24.125 3.8047 6.9727 5.0508 11.105 13.129 11.129 21.738v5.5273h-2.7773c-2.1484 0.003906-3.8906 1.7461-3.8945 3.8945v19.871c0.003906 2.1484 1.7461 3.8906 3.8945 3.8945h3.6602c-0.44531 2.9023-2.0547 5.4922-4.4609 7.1719-2.7031 1.8984-6.5781 2.9805-11.629 3.25-0.625-2.0703-2.5312-3.4922-4.6953-3.5h-4.4609c-2.707 0-4.9023 2.1953-4.9023 4.9023 0 2.7031 2.1953 4.8984 4.9023 4.8984h4.4609c2.1992-0.007812 4.125-1.4688 4.7188-3.5859 5.6328-0.28516 10.023-1.5312 13.168-3.7383 3.1445-2.1797 5.2031-5.6016 5.6602-9.3984h0.078126c5.7344-0.015625 10.379-4.6602 10.391-10.395v-6.8711c-0.011718-5.7344-4.6562-10.379-10.391-10.395h-0.99219v-5.5273c0-8.7617-3.8789-17.074-10.598-22.699-6.7148-5.6289-15.578-7.9922-24.203-6.4531-1.0742 0.19141-2.1367 0.44141-3.1797 0.75391v-7.6094c-0.007812-2.2539-1.832-4.0781-4.0859-4.082h-32.301c-2.25 0.003906-4.0742 1.8281-4.0781 4.082v21.105c0.003906 2.2539 1.8281 4.0781 4.0781 4.082h16.051l0.875 0.71875c-1.1836 3.2383-1.7891 6.6562-1.7891 10.102v5.5273h-0.99219c-5.7344 0.011718-10.379 4.6602-10.395 10.395v6.8711c0.015626 5.7344 4.6602 10.379 10.395 10.395h6.5c2.1523 0 3.8984-1.7422 3.9023-3.8945v-19.871c-0.003907-2.1523-1.75-3.8945-3.9023-3.8945h-2.7773v-5.5273c-0.003906-1.7148 0.16016-3.4258 0.48828-5.1094 0.20703-1.0664 0.47656-2.1172 0.8125-3.1484l7.5312 6.1914c0.40625 0.33203 0.96875 0.40234 1.4453 0.17969 0.47266-0.22656 0.77734-0.70312 0.77734-1.2305h0.003906v-7.6992zm-4.7383-2.7266h4.7383c0.74609-0.003907 1.3516-0.60938 1.3555-1.3555v-21.105c-0.003906-0.74609-0.60937-1.3516-1.3555-1.3555h-32.301c-0.74609 0.003907-1.3477 0.60938-1.3516 1.3555v21.105c0.003906 0.74609 0.60547 1.3516 1.3516 1.3555h16.531c0.35547 0 0.69531 0.13672 0.94922 0.38672l1.8555 1.5195c0.054688 0.039062 0.10547 0.082031 0.15625 0.12891l6.7109 5.5156v-6.1875c0-0.75391 0.60937-1.3633 1.3594-1.3633z" fill-rule="evenodd"/>
<text x="0.0" y="117.5" font-size="5.0" font-weight="bold" font-family="Arbeit Regular, Helvetica, Arial-Unicode, Arial, Sans-serif" fill="#000000">Created by wahyu eko prasetyo</text><text x="0.0" y="122.5" font-size="5.0" font-weight="bold" font-family="Arbeit Regular, Helvetica, Arial-Unicode, Arial, Sans-serif" fill="#000000">from Noun Project</text></svg>