<svg xmlns="http://www.w3.org/2000/svg" viewBox="0 0 106 107.5" x="0px" y="0px"><g data-name="Layer 2"><g data-name="Layer 1"><path d="M50,49H42V16a6,6,0,0,0-6-6H20a6,6,0,0,0-6,6V49H6A6,6,0,0,0,1.5,59l22,25a6,6,0,0,0,9,0l22-25A6,6,0,0,0,50,49ZM28,80,6,55H20V16H36V55H50Zm76.5-53L82.5,2a6,6,0,0,0-9,0l-22,25A6,6,0,0,0,56,37h8V70a6,6,0,0,0,6,6H86a6,6,0,0,0,6-6V37h8a6,6,0,0,0,4.5-10ZM86,31V70H70V31H56L78,6l22,25Z"/></g></g><text x="0" y="101" fill="#000000" font-size="5px" font-weight="bold" font-family="'Helvetica Neue', Helvetica, Arial-Unicode, Arial, Sans-serif">Created by Thomas Soto</text><text x="0" y="106" fill="#000000" font-size="5px" font-weight="bold" font-family="'Helvetica Neue', Helvetica, Arial-Unicode, Arial, Sans-serif">from the Noun Project</text></svg>