<svg xmlns="http://www.w3.org/2000/svg" viewBox="0 0 100 125" x="0px" y="0px"><title>Artboard 51</title><g data-name="Layer 2"><path d="M8,13H87.49005a4.50005,4.50005,0,1,0,0-4H8V6A2,2,0,0,0,4,6V94c0,.02026.00537.03912.006.05927a1.98822,1.98822,0,0,0,.02466.24481c.007.04565.01154.09167.02161.13629.00281.01239.00281.02478.00586.03717a1.98337,1.98337,0,0,0,.0705.2088c.01263.03442.02069.07074.03516.10425a1.98823,1.98823,0,0,0,.1712.31525c.017.02545.038.04755.056.0722a2.00477,2.00477,0,0,0,.17084.207c.02942.03058.06171.05743.093.08606a2.00837,2.00837,0,0,0,.179.14764c.03772.02716.07635.05194.11591.07648a1.97755,1.97755,0,0,0,.19635.10663c.04291.02039.08539.04047.12994.05786a1.98765,1.98765,0,0,0,.22858.07092c.041.0105.08051.0238.1225.03174A1.99446,1.99446,0,0,0,6,96H94a2,2,0,0,0,0-4H56V44a2.00009,2.00009,0,0,0-3.67187-1.09766L41.27979,59.73145l-9.95557.60547a1.99944,1.99944,0,0,0-1.75,1.291l-4.9873,13.22949L20.0293,73.4248a1.99969,1.99969,0,0,0-2.52344,1.36133L13.853,87.627,8,90.69409V23H87.49005a4.50005,4.50005,0,1,0,0-4H8Zm83.5-2.5a.5.5,0,1,1-.5.5A.50065.50065,0,0,1,91.5,10.5Zm0,10a.5.5,0,1,1-.5.5A.50065.50065,0,0,1,91.5,20.5ZM16.47021,90.77148a2.0007,2.0007,0,0,0,.99561-1.22461L20.791,77.85742l4.40039,1.38379a2.00056,2.00056,0,0,0,2.47119-1.20312L32.86035,64.251l9.6626-.58789a1.99911,1.99911,0,0,0,1.55029-.89844L52,50.69043V92H14.126Z"/><path d="M87.55225,31.5a2.0001,2.0001,0,0,0-2,2V61.25153l-2.95557-3.315a1.99995,1.99995,0,1,0-2.98535,2.66211l6.44824,7.23242c.012.01337.02679.02222.039.03522.02722.029.05457.05695.0835.08423.01422.01349.02441.02954.03912.04266.03021.02692.06439.04572.0957.07043s.06073.05231.0932.075c.022.01538.045.02893.06763.04346a1.96879,1.96879,0,0,0,.18274.09967c.03418.01709.066.03931.10089.05432.01624.007.03351.01184.05.01843a1.97912,1.97912,0,0,0,.22845.07092c.0177.0047.03436.012.05231.01624s.03479.0127.05286.01642l.02771.00366a2.0086,2.0086,0,0,0,.37909.03827h.001a2.0086,2.0086,0,0,0,.37909-.03827l.02771-.00366c.01807-.00372.03491-.01215.05286-.01642s.03461-.01154.05231-.01624a1.97912,1.97912,0,0,0,.22845-.07092c.01648-.00659.03375-.01141.05-.01843.03491-.015.06671-.03723.10089-.05432a1.96879,1.96879,0,0,0,.18274-.09967c.02264-.01453.04559-.02808.06763-.04346.03247-.02271.06183-.05023.0932-.075s.06549-.04352.0957-.07043c.01471-.01312.0249-.02917.03912-.04266.02893-.02728.05627-.05524.0835-.08423.01221-.013.027-.02185.039-.03522l6.44775-7.23242a1.99995,1.99995,0,1,0-2.98535-2.66211l-2.95508,3.3147V33.5A2.0001,2.0001,0,0,0,87.55225,31.5Z"/><path d="M67.44775,68.5a2.0001,2.0001,0,0,0,2-2V38.74847l2.95557,3.315a1.99995,1.99995,0,1,0,2.98535-2.66211l-6.44824-7.23242c-.01263-.01416-.02808-.02393-.041-.03766-.02655-.02814-.05334-.05524-.08148-.08179-.01422-.01349-.02441-.02954-.03912-.04266-.022-.01965-.04755-.03241-.07019-.0509-.03656-.03-.07214-.06061-.11035-.08765-.0296-.02087-.06042-.03931-.09119-.05865-.042-.02637-.08441-.05035-.12775-.07324-.03986-.02106-.07886-.043-.11981-.06116-.03241-.0144-.06586-.02576-.09912-.03851-.04663-.01776-.093-.03357-.1405-.04773-.04333-.01294-.08606-.02625-.13-.03619-.03381-.00763-.0683-.01263-.10278-.01855-.04761-.00818-.09473-.01453-.1427-.01923-.04956-.00488-.09857-.00891-.14838-.01013-.01642-.00043-.03174-.00488-.04828-.00488-.01825,0-.03522.00488-.05334.00537-.04382.00116-.08691.00446-.13055.00848-.05371.00494-.10663.01154-.15991.02081-.03479.006-.06921.01184-.10339.01965-.03845.00879-.07581.02039-.11377.03149-.05231.01526-.10358.03217-.15479.05188-.03369.01294-.0672.02509-.1.03973-.03711.0166-.07233.03638-.10852.0553-.04633.02423-.09149.04944-.13623.07758-.03131.01971-.06256.03882-.09265.06018-.03625.0257-.07.05493-.1048.08325-.02362.01923-.05017.03259-.07312.0531-.01471.01312-.0249.02917-.03912.04266-.02826.02667-.05518.05389-.08179.08215-.01282.01361-.0282.02325-.04071.03729l-6.44775,7.23242a1.99995,1.99995,0,1,0,2.98535,2.66211l2.95508-3.3147V66.5A2.0001,2.0001,0,0,0,67.44775,68.5Z"/></g><text x="0" y="115" fill="#000000" font-size="5px" font-weight="bold" font-family="'Helvetica Neue', Helvetica, Arial-Unicode, Arial, Sans-serif">Created by Fatahillah</text><text x="0" y="120" fill="#000000" font-size="5px" font-weight="bold" font-family="'Helvetica Neue', Helvetica, Arial-Unicode, Arial, Sans-serif">from the Noun Project</text></svg>